<?xml version="1.0" standalone="no"?>
<!DOCTYPE svg PUBLIC "-//W3C//DTD SVG 20010904//EN"
 "http://www.w3.org/TR/2001/REC-SVG-20010904/DTD/svg10.dtd">
<svg version="1.0" xmlns="http://www.w3.org/2000/svg"
 width="16.000000pt" height="16.000000pt" viewBox="0 0 16.000000 16.000000"
 preserveAspectRatio="xMidYMid meet">
<metadata>
Created by potrace 1.11, written by Peter Selinger 2001-2013
</metadata>
<g transform="translate(0.000000,16.000000) scale(0.003125,-0.003125)"
fill="#000000" stroke="none">
<path d="M430 5109 c-201 -33 -387 -224 -420 -429 -14 -90 -14 -4150 0 -4240
34 -210 220 -396 430 -430 91 -14 4151 -14 4239 1 213 34 397 218 431 429 14
90 14 4150 0 4240 -34 210 -220 396 -430 430 -82 13 -4170 12 -4250 -1z m1710
-733 c128 -63 235 -117 238 -120 3 -3 -27 -54 -65 -113 -258 -394 -400 -784
-459 -1253 -21 -165 -21 -495 0 -660 59 -469 201 -859 459 -1253 38 -59 68
-110 65 -113 -9 -8 -471 -235 -473 -232 -1 2 -34 50 -72 108 -266 402 -440
853 -513 1329 -124 804 62 1632 524 2328 33 51 62 93 63 93 0 0 106 -51 233
-114z m1684 -116 c5 -6 -16 -47 -52 -102 -322 -491 -482 -1022 -482 -1598 0
-576 160 -1107 482 -1598 36 -55 57 -96 52 -102 -5 -4 -111 -58 -236 -118
l-228 -110 -33 46 c-233 320 -441 806 -526 1227 -85 421 -85 889 0 1310 85
421 293 907 526 1227 l33 46 228 -110 c125 -60 231 -114 236 -118z"/>
</g>
</svg>
